<mxfile
  host="Electron" 
  agent="Mozilla/5.0 (Macintosh; Intel Mac OS X 10_15_7) AppleWebKit/537.36 (KHTML, like Gecko) draw.io/25.0.2 Chrome/128.0.6613.186 Electron/32.2.5 Safari/537.36" 
  version="25.0.2"
  >
  <diagram
    name="sequence-diagram-with-elements-only"
    >
    <mxGraphModel
      grid="1" 
      gridSize="10" 
      guides="1" 
      tooltips="1" 
      connect="1" 
      arrows="1" 
      fold="1" 
      page="1" 
      pageScale="1" 
      pageWidth="1" 
      pageHeight="1" 
      math="0" 
      shadow="0"
      >
      <root>
        <mxCell
          id="page"
          />
        <mxCell
          id="root" 
          parent="page"
          />
        <mxCell
          style="verticalAlign=top;aspect=fixed;align=center;spacingLeft=5;spacingRight=5;spacingBottom=5;strokeColor=none;" 
          id="shape_sequencediagramwithelementsonly" 
          parent="root" 
          value="Sequence Diagram with elements only" 
          vertex="1"
          >
          <mxGeometry
            as="geometry" 
            width="360" 
            height="397.5" 
            x="0" 
            y="0"
            />
          </mxCell>
        <mxCell
          style="verticalAlign=top;aspect=fixed;align=center;spacingLeft=5;spacingRight=5;spacingBottom=5;noLabel=1;opacity=0;" 
          id="participant" 
          parent="shape_sequencediagramwithelementsonly" 
          value="Participant" 
          vertex="1"
          >
          <mxGeometry
            as="geometry" 
            width="110" 
            height="367.5" 
            x="15" 
            y="15"
            />
          </mxCell>
        <mxCell
          style="rounded=1;whiteSpace=wrap;verticalAlign=top;align=center;sketch=0;outlineConnect=0;fontColor=#232F3E;gradientColor=none;fillColor=#232F3D;strokeColor=none;dashed=0;verticalLabelPosition=bottom;html=1;fontSize=12;fontStyle=0;aspect=fixed;pointerEvents=1;shape=mxgraph.aws4.user;" 
          id="user" 
          parent="participant" 
          value="User" 
          vertex="1"
          >
          <mxGeometry
            width="60" 
            height="60" 
            as="geometry" 
            x="25" 
            y="15"
            />
          </mxCell>
        <mxCell
          style="rounded=1;whiteSpace=wrap;verticalAlign=middle;align=center;line;strokeWidth=1;direction=south;html=1;dashed=1;" 
          id="shape_" 
          parent="participant" 
          value=" " 
          vertex="1"
          >
          <mxGeometry
            height="250" 
            as="geometry" 
            width="60" 
            x="25" 
            y="102.5"
            />
          </mxCell>
        <mxCell
          style="verticalAlign=top;aspect=fixed;align=center;spacingLeft=5;spacingRight=5;spacingBottom=5;noLabel=1;opacity=0;" 
          id="rows" 
          parent="participant" 
          value="Rows" 
          vertex="1"
          >
          <mxGeometry
            x="55" 
            y="105" 
            as="geometry" 
            width="0" 
            height="0"
            />
          </mxCell>
        <mxCell
          style="rounded=1;whiteSpace=wrap;verticalAlign=middle;align=center;textDirection=vertical-rl;" 
          id="activation_" 
          parent="rows" 
          value=" " 
          vertex="1"
          >
          <mxGeometry
            width="14" 
            height="200" 
            x="-7" 
            y="10" 
            as="geometry"
            />
          </mxCell>
        <mxCell
          style="rounded=1;whiteSpace=wrap;verticalAlign=middle;align=center;textDirection=vertical-rl;" 
          id="activation_subactivation" 
          parent="rows" 
          value="sub activation" 
          vertex="1"
          >
          <mxGeometry
            width="14" 
            height="100" 
            x="0" 
            y="100" 
            as="geometry"
            />
          </mxCell>
        <mxCell
          style="verticalAlign=top;aspect=fixed;align=center;spacingLeft=5;spacingRight=5;spacingBottom=5;noLabel=1;opacity=0;" 
          id="participant_2" 
          parent="shape_sequencediagramwithelementsonly" 
          value="Participant" 
          vertex="1"
          >
          <mxGeometry
            as="geometry" 
            width="110" 
            height="367.5" 
            x="125" 
            y="15"
            />
          </mxCell>
        <mxCell
          style="rounded=1;whiteSpace=wrap;verticalAlign=top;align=center;sketch=0;outlineConnect=0;fontColor=#232F3E;gradientColor=none;fillColor=#232F3D;strokeColor=none;dashed=0;verticalLabelPosition=bottom;html=1;fontSize=12;fontStyle=0;aspect=fixed;pointerEvents=1;shape=mxgraph.aws4.client;" 
          id="client" 
          parent="participant_2" 
          value="Client" 
          vertex="1"
          >
          <mxGeometry
            width="60" 
            height="60" 
            as="geometry" 
            x="25" 
            y="15"
            />
          </mxCell>
        <mxCell
          style="rounded=1;whiteSpace=wrap;verticalAlign=middle;align=center;line;strokeWidth=1;direction=south;html=1;dashed=1;" 
          id="shape_2" 
          parent="participant_2" 
          value=" " 
          vertex="1"
          >
          <mxGeometry
            height="250" 
            as="geometry" 
            width="60" 
            x="25" 
            y="102.5"
            />
          </mxCell>
        <mxCell
          style="verticalAlign=top;aspect=fixed;align=center;spacingLeft=5;spacingRight=5;spacingBottom=5;noLabel=1;opacity=0;" 
          id="rows_2" 
          parent="participant_2" 
          value="Rows" 
          vertex="1"
          >
          <mxGeometry
            x="55" 
            y="105" 
            as="geometry" 
            width="0" 
            height="0"
            />
          </mxCell>
        <mxCell
          style="rounded=1;whiteSpace=wrap;verticalAlign=middle;align=center;textDirection=vertical-rl;" 
          id="activation_2" 
          parent="rows_2" 
          value=" " 
          vertex="1"
          >
          <mxGeometry
            width="14" 
            height="60" 
            x="-7" 
            y="20" 
            as="geometry"
            />
          </mxCell>
        <mxCell
          style="rounded=1;whiteSpace=wrap;verticalAlign=middle;align=center;textDirection=vertical-rl;dashed=1;" 
          id="activation_3" 
          parent="rows_2" 
          value=" " 
          vertex="1"
          >
          <mxGeometry
            width="14" 
            height="80" 
            x="-7" 
            y="110" 
            as="geometry"
            />
          </mxCell>
        <mxCell
          style="verticalAlign=top;aspect=fixed;align=center;spacingLeft=5;spacingRight=5;spacingBottom=5;noLabel=1;opacity=0;" 
          id="participant_3" 
          parent="shape_sequencediagramwithelementsonly" 
          value="Participant" 
          vertex="1"
          >
          <mxGeometry
            as="geometry" 
            width="110" 
            height="367.5" 
            x="235" 
            y="15"
            />
          </mxCell>
        <mxCell
          style="rounded=1;whiteSpace=wrap;verticalAlign=middle;align=center;" 
          id="shape_servers" 
          parent="participant_3" 
          value="Servers" 
          vertex="1"
          >
          <mxGeometry
            width="60" 
            height="60" 
            as="geometry" 
            x="25" 
            y="15"
            />
          </mxCell>
        <mxCell
          style="rounded=1;whiteSpace=wrap;verticalAlign=middle;align=center;line;strokeWidth=1;direction=south;html=1;dashed=1;" 
          id="shape_3" 
          parent="participant_3" 
          value=" " 
          vertex="1"
          >
          <mxGeometry
            height="277.5" 
            as="geometry" 
            width="60" 
            x="25" 
            y="75"
            />
          </mxCell>
        <mxCell
          style="verticalAlign=top;aspect=fixed;align=center;spacingLeft=5;spacingRight=5;spacingBottom=5;noLabel=1;opacity=0;" 
          id="rows_3" 
          parent="participant_3" 
          value="Rows" 
          vertex="1"
          >
          <mxGeometry
            x="55" 
            y="105" 
            as="geometry" 
            width="0" 
            height="0"
            />
          </mxCell>
        <mxCell
          style="rounded=1;whiteSpace=wrap;verticalAlign=middle;align=center;textDirection=vertical-rl;" 
          id="activation_4" 
          parent="rows_3" 
          value=" " 
          vertex="1"
          >
          <mxGeometry
            width="14" 
            height="40" 
            x="-7" 
            y="30" 
            as="geometry"
            />
          </mxCell>
        <mxCell
          style="rounded=1;whiteSpace=wrap;verticalAlign=middle;align=center;textDirection=vertical-rl;" 
          id="activation_5" 
          parent="rows_3" 
          value=" " 
          vertex="1"
          >
          <mxGeometry
            width="14" 
            height="60" 
            x="-7" 
            y="120" 
            as="geometry"
            />
          </mxCell>
        <mxCell
          id="message_m1" 
          parent="root" 
          edge="1" 
          value="M1"
          >
          <mxGeometry
            relative="1" 
            as="geometry"
            >
            <mxPoint
              as="sourcePoint" 
              x="77" 
              y="140"
              />
            <mxPoint
              as="targetPoint" 
              x="173" 
              y="140"
              />
            </mxGeometry>
          </mxCell>
        <mxCell
          id="message_2" 
          parent="root" 
          edge="1" 
          value="M1"
          >
          <mxGeometry
            relative="1" 
            as="geometry"
            >
            <mxPoint
              as="sourcePoint" 
              x="84" 
              y="230"
              />
            <mxPoint
              as="targetPoint" 
              x="173" 
              y="230"
              />
            </mxGeometry>
          </mxCell>
        <mxCell
          id="message_m2" 
          parent="root" 
          edge="1" 
          value="M2"
          >
          <mxGeometry
            relative="1" 
            as="geometry"
            >
            <mxPoint
              as="sourcePoint" 
              x="187" 
              y="150"
              />
            <mxPoint
              as="targetPoint" 
              x="283" 
              y="150"
              />
            </mxGeometry>
          </mxCell>
        <mxCell
          id="message_" 
          parent="root" 
          edge="1" 
          style="dashed=1;" 
          value=" "
          >
          <mxGeometry
            relative="1" 
            as="geometry"
            >
            <mxPoint
              as="sourcePoint" 
              x="173" 
              y="200"
              />
            <mxPoint
              as="targetPoint" 
              x="77" 
              y="200"
              />
            </mxGeometry>
          </mxCell>
        <mxCell
          id="message_3" 
          parent="root" 
          edge="1" 
          value="M2"
          >
          <mxGeometry
            relative="1" 
            as="geometry"
            >
            <mxPoint
              as="sourcePoint" 
              x="187" 
              y="240"
              />
            <mxPoint
              as="targetPoint" 
              x="283" 
              y="240"
              />
            </mxGeometry>
          </mxCell>
        <mxCell
          id="message_4" 
          parent="root" 
          edge="1" 
          style="dashed=1;" 
          value=" "
          >
          <mxGeometry
            relative="1" 
            as="geometry"
            >
            <mxPoint
              as="sourcePoint" 
              x="173" 
              y="310"
              />
            <mxPoint
              as="targetPoint" 
              x="84" 
              y="310"
              />
            </mxGeometry>
          </mxCell>
        <mxCell
          id="message_5" 
          parent="root" 
          edge="1" 
          style="dashed=1;" 
          value=" "
          >
          <mxGeometry
            relative="1" 
            as="geometry"
            >
            <mxPoint
              as="sourcePoint" 
              x="283" 
              y="190"
              />
            <mxPoint
              as="targetPoint" 
              x="187" 
              y="190"
              />
            </mxGeometry>
          </mxCell>
        <mxCell
          id="message_6" 
          parent="root" 
          edge="1" 
          style="dashed=1;" 
          value=" "
          >
          <mxGeometry
            relative="1" 
            as="geometry"
            >
            <mxPoint
              as="sourcePoint" 
              x="283" 
              y="300"
              />
            <mxPoint
              as="targetPoint" 
              x="187" 
              y="300"
              />
            </mxGeometry>
          </mxCell>
        </root>
      </mxGraphModel>
    </diagram>
  </mxfile>